<svg xmlns="http://www.w3.org/2000/svg" xmlns:xlink="http://www.w3.org/1999/xlink" version="1.1" data-diagram-type="DESCRIPTION" style="width:848px;height:467px;background:#FFFFFF;" width="848px" height="467px" viewBox="0 0 848 467" zoomAndPan="magnify" preserveAspectRatio="none" contentStyleType="text/css"><?plantuml 1.2026.8?><defs/><g font-family="sans-serif" lengthAdjust="spacing"><!--cluster Application Vente de Formations--><g class="cluster" data-qualified-name="Application Vente de Formations" id="ent0004" data-source-line="11"><rect x="329" y="7" width="505" height="446" fill="none" style="stroke:#181818;stroke-width:1;" rx="2.5" ry="2.5"/><text x="472.21" y="23.533" fill="#000" font-size="14" textLength="218.579" font-weight="700">Application Vente de Formations</text></g><!--entity UC_Liste--><g class="entity" data-qualified-name="Application Vente de Formations.UC_Liste" id="ent0005" data-source-line="13"><ellipse cx="426.16" cy="253.132" rx="81.16" ry="18.632" fill="#F1F1F1" style="stroke:#181818;stroke-width:0.5;"/><text x="361.577" y="258.437" fill="#000" font-size="14" textLength="129.165">Consulter formations</text></g><g class="entity" data-qualified-name="Application Vente de Formations.GMN6" id="ent0007" data-source-line="15"><path d="M587.5,202.5 L587.5,241.12 L505.29,249.15 L587.5,249.12 L587.5,277.906 A0,0 0 0 0 587.5,277.906 L797.057,277.906 A0,0 0 0 0 797.057,277.906 L797.057,212.5 L787.057,202.5 L587.5,202.5 A0,0 0 0 0 587.5,202.5" style="stroke:#181818;stroke-width:0.5;" fill="#FEFFDD"/><path d="M787.057,202.5 L787.057,212.5 L797.057,212.5 L787.057,202.5" style="stroke:#181818;stroke-width:0.5;" fill="#FEFFDD"/><text x="593.5" y="220.995" fill="#000" font-size="13" textLength="64.321">Regroupe :</text><text x="593.5" y="237.347" fill="#000" font-size="13" textLength="100.452">- Affichage global</text><text x="593.5" y="253.698" fill="#000" font-size="13" textLength="139.439">- Recherche par mot-clé</text><text x="593.5" y="270.05" fill="#000" font-size="13" textLength="188.557">- Filtrage (Présentiel / Distanciel)</text></g><!--entity UC_Panier--><g class="entity" data-qualified-name="Application Vente de Formations.UC_Panier" id="ent0009" data-source-line="21"><ellipse cx="426.073" cy="331.952" rx="58.573" ry="15.452" fill="#F1F1F1" style="stroke:#181818;stroke-width:0.5;"/><text x="386.777" y="337.256" fill="#000" font-size="14" textLength="78.593">Gérer panier</text></g><g class="entity" data-qualified-name="Application Vente de Formations.GMN10" id="ent0011" data-source-line="23"><path d="M567,313 L567,350.75 L476.44,340.04 L567,358.75 L567,437.461 A0,0 0 0 0 567,437.461 L818.496,437.461 A0,0 0 0 0 818.496,437.461 L818.496,323 L808.496,313 L567,313 A0,0 0 0 0 567,313" style="stroke:#181818;stroke-width:0.5;" fill="#FEFFDD"/><path d="M808.496,313 L808.496,323 L818.496,323 L808.496,313" style="stroke:#181818;stroke-width:0.5;" fill="#FEFFDD"/><text x="573" y="331.495" fill="#000" font-size="13" textLength="64.321">Regroupe :</text><text x="573" y="347.847" fill="#000" font-size="13" textLength="135.11">- Créer / Vider le panier</text><text x="573" y="364.198" fill="#000" font-size="13" textLength="182.076">- Ajouter / Retirer une formation</text><text x="573" y="380.55" fill="#000" font-size="13"> </text><text x="573" y="396.901" fill="#000" font-size="13" textLength="41.19">Règle :</text><text x="573" y="413.253" fill="#000" font-size="13" textLength="176.319">- Un panier valide doit contenir</text><text x="580.224" y="429.604" fill="#000" font-size="13" textLength="223.272">au moins 1 formation pour commander</text></g><!--entity UC_Creer--><g class="entity" data-qualified-name="Application Vente de Formations.UC_Creer" id="ent0013" data-source-line="32"><ellipse cx="425.967" cy="400.952" rx="62.967" ry="15.452" fill="#F1F1F1" style="stroke:#181818;stroke-width:0.5;"/><text x="383.564" y="406.256" fill="#000" font-size="14" textLength="84.807">Créer compte</text></g><!--entity UC_Authentification--><g class="entity" data-qualified-name="Application Vente de Formations.UC_Authentification" id="ent0014" data-source-line="33"><ellipse cx="425.973" cy="172.952" rx="60.473" ry="15.452" fill="#F1F1F1" style="stroke:#181818;stroke-width:0.5;"/><text x="385.333" y="178.256" fill="#000" font-size="14" textLength="81.279">S'authentifier</text></g><!--entity UC_Commande--><g class="entity" data-qualified-name="Application Vente de Formations.UC_Commande" id="ent0015" data-source-line="35"><ellipse cx="426.101" cy="105.12" rx="76.101" ry="17.62" fill="#F1F1F1" style="stroke:#181818;stroke-width:0.5;"/><text x="367.743" y="110.425" fill="#000" font-size="14" textLength="116.717">Passer commande</text></g><g class="entity" data-qualified-name="Application Vente de Formations.GMN16" id="ent0017" data-source-line="37"><path d="M575,43 L575,101 L502.09,105 L575,109 L575,167.461 A0,0 0 0 0 575,167.461 L809.903,167.461 A0,0 0 0 0 809.903,167.461 L809.903,53 L799.903,43 L575,43 A0,0 0 0 0 575,43" style="stroke:#181818;stroke-width:0.5;" fill="#FEFFDD"/><path d="M799.903,43 L799.903,53 L809.903,53 L799.903,43" style="stroke:#181818;stroke-width:0.5;" fill="#FEFFDD"/><text x="581" y="61.495" fill="#000" font-size="13" textLength="64.321">Regroupe :</text><text x="581" y="77.847" fill="#000" font-size="13" textLength="122.859">- Validation du panier</text><text x="581" y="94.198" fill="#000" font-size="13" textLength="159.701">- Ajout du client bénéficiaire</text><text x="581" y="110.55" fill="#000" font-size="13"> </text><text x="581" y="126.901" fill="#000" font-size="13" textLength="41.19">Règle :</text><text x="581" y="143.253" fill="#000" font-size="13" textLength="159.688">- Toute commande doit être</text><text x="588.224" y="159.604" fill="#000" font-size="13" textLength="206.68">obligatoirement associée à un client</text></g><!--entity visiteur--><g class="entity" data-qualified-name="visiteur" id="ent0001" data-source-line="4"><ellipse cx="53.858" cy="256" rx="8" ry="8" fill="#F1F1F1" style="stroke:#181818;stroke-width:0.5;"/><path d="M53.858,264 L53.858,291 M40.858,272 L66.858,272 M53.858,291 L40.858,306 M53.858,291 L66.858,306" style="stroke:#181818;stroke-width:0.5;" fill="none"/><text x="6" y="322.033" fill="#000" font-size="14" textLength="46.683">Visiteur</text><text x="6" y="339.643" fill="#000" font-size="14" textLength="95.717">(Non connecté)</text></g><!--entity utilisateur--><g class="entity" data-qualified-name="utilisateur" id="ent0002" data-source-line="5"><ellipse cx="223.476" cy="136.5" rx="8" ry="8" fill="#F1F1F1" style="stroke:#181818;stroke-width:0.5;"/><path d="M223.476,144.5 L223.476,171.5 M210.476,152.5 L236.476,152.5 M223.476,171.5 L210.476,186.5 M223.476,171.5 L236.476,186.5" style="stroke:#181818;stroke-width:0.5;" fill="none"/><text x="162" y="202.533" fill="#000" font-size="14" textLength="122.951">Utilisateur connecté</text></g><!--reverse link visiteur to utilisateur--><g class="link" data-entity-1="ent0001" data-entity-2="ent0002" id="lnk3" data-source-line="8" data-link-type="extension"><path d="M116.402,248.071 C137.982,231.581 149.3,222.94 171.35,206.09" style="stroke:#181818;stroke-width:1;" fill="none" id="visiteur-backto-utilisateur"/><polygon points="102.1,259,120.045,252.839,112.759,243.304,102.1,259" fill="none" style="stroke:#181818;stroke-width:1;stroke-linejoin:miter;stroke-miterlimit:10;"/></g><!--link visiteur to UC_Liste--><g class="link" data-entity-1="ent0001" data-entity-2="ent0005" id="lnk19" data-source-line="49" data-link-type="association"><path d="M102.24,289.64 C165.65,282.44 278.89,269.59 352.96,261.18" style="stroke:#181818;stroke-width:1;" fill="none" id="visiteur-UC_Liste"/></g><!--link visiteur to UC_Panier--><g class="link" data-entity-1="ent0001" data-entity-2="ent0009" id="lnk20" data-source-line="50" data-link-type="association"><path d="M102.24,299.72 C171.01,306.6 298.37,319.34 370.85,326.58" style="stroke:#181818;stroke-width:1;" fill="none" id="visiteur-UC_Panier"/></g><!--link visiteur to UC_Creer--><g class="link" data-entity-1="ent0001" data-entity-2="ent0013" id="lnk21" data-source-line="51" data-link-type="association"><path d="M102.13,308.7 C120.77,314.11 142.39,320.36 162,326 C240.49,348.56 332.23,374.66 383.99,389.36" style="stroke:#181818;stroke-width:1;" fill="none" id="visiteur-UC_Creer"/></g><!--link utilisateur to UC_Authentification--><g class="link" data-entity-1="ent0002" data-entity-2="ent0014" id="lnk22" data-source-line="53" data-link-type="association"><path d="M285.2,168.82 C310.79,169.58 340.47,170.47 365.88,171.23" style="stroke:#181818;stroke-width:1;" fill="none" id="utilisateur-UC_Authentification"/></g><!--link utilisateur to UC_Commande--><g class="link" data-entity-1="ent0002" data-entity-2="ent0015" id="lnk23" data-source-line="54" data-link-type="association"><path d="M285.2,148.23 C315.63,138.82 351.85,127.62 379.79,118.98" style="stroke:#181818;stroke-width:1;" fill="none" id="utilisateur-UC_Commande"/></g><?plantuml-src TLJBRjim4BphAnQ-A3a8Hgz1K41GaiA0aHf-dGeKDBMIMT2aG56-jFsN7gl-XdwiI-hfH3aOCdTdPuT3BYLc5gm68_ApXLGOv5Pe5GJB4A8eWZZPFn-sE_y_N0QCMsrWSHIbi5YPR-hkLIlWMYcgQ-hx1R0IhbssHn-iaA9aBZH2FR8QCq4GGYn5hl22oi8LZHMSINY0lXcWWZEhRD3pm-ClKdN34JZzJEKIOH4NXIGAjnqu4YT2Yl2YpSM7oWNy30A0gaJEIe8d5AkaHGFP14CY3ydtjIWj4bXfOccjqjaq0R35tEYgG7ZmIt8komG_inmXb_h4P1VU8Z-ZeHyKpC15suZBfkwIBq9QuqhkDgQfIn8jKC8IdgWDKvmMzuH4bNebD_A_DBKXxGLJ0aslU-DNSyA7p8poX7eJrPASJ-ahiMFjD_P3LzRdjsY5Qref74tpg9Qu-UiEegSzg8u7hamICwHQM7SXB2fXsX80Lf4fGfNmQQI4GlkhSxambNeTinPqkWbNMEmjI0pwYW6r2-aEdPsrsSIfU8YrD-Q6UCFA4aS10tMtdlDtafjn-EWCQBUMLZFkkYYNmWt2gQbLKvCimSZh3ytTkpCP5BRMDl-imTvNVQBXObOJYHymsfBcWWo3vWyTODTkQktluH7OFg_Z_Uhhwsvu3XwZw3CayGwUmiD-jLxjVDw1wP4O1vHgXo5v4-mku9jeUrh1PAQxnBlpUG_fBVyF?></g></svg>