<svg xmlns="http://www.w3.org/2000/svg" xmlns:xlink="http://www.w3.org/1999/xlink" version="1.1" data-diagram-type="SEQUENCE" style="width:681px;height:824px;background:#FFFFFF;" width="681px" height="824px" viewBox="0 0 681 824" zoomAndPan="magnify" preserveAspectRatio="none" contentStyleType="text/css"><?plantuml 1.2026.8?><defs/><g font-family="sans-serif" lengthAdjust="spacing"><rect x="37.062" y="579.531" width="550.445" height="132.406" fill="none" style="stroke:#000;stroke-width:1.5;"/><g><title>Visitor . User</title><rect x="49.562" y="87.609" width="8" height="648.328" fill="#000" fill-opacity="0"/><line x1="53.062" y1="87.609" x2="53.062" y2="735.938" style="stroke:#181818;stroke-width:0.5;stroke-dasharray:5,5;"/></g><g><title>System</title><rect x="390.057" y="87.609" width="8" height="648.328" fill="#000" fill-opacity="0"/><line x1="393.557" y1="87.609" x2="393.557" y2="735.938" style="stroke:#181818;stroke-width:0.5;stroke-dasharray:5,5;"/></g><text x="10" y="84.533" fill="#000" font-size="14" textLength="80.124">Visitor / User</text><ellipse cx="53.062" cy="18.5" rx="8" ry="8" fill="#E2E2F0" style="stroke:#181818;stroke-width:0.5;"/><path d="M53.062,26.5 L53.062,53.5 M40.062,34.5 L66.062,34.5 M53.062,53.5 L40.062,68.5 M53.062,53.5 L66.062,68.5" style="stroke:#181818;stroke-width:0.5;" fill="none"/><rect x="363.219" y="55" width="60.676" height="31.609" fill="#E2E2F0" style="stroke:#181818;stroke-width:0.5;" rx="2.5" ry="2.5"/><text x="370.219" y="76.533" fill="#000" font-size="14" textLength="46.676">System</text><text x="10" y="750.471" fill="#000" font-size="14" textLength="80.124">Visitor / User</text><ellipse cx="53.062" cy="762.047" rx="8" ry="8" fill="#E2E2F0" style="stroke:#181818;stroke-width:0.5;"/><path d="M53.062,770.047 L53.062,797.047 M40.062,778.047 L66.062,778.047 M53.062,797.047 L40.062,812.047 M53.062,797.047 L66.062,812.047" style="stroke:#181818;stroke-width:0.5;" fill="none"/><rect x="363.219" y="735.938" width="60.676" height="31.609" fill="#E2E2F0" style="stroke:#181818;stroke-width:0.5;" rx="2.5" ry="2.5"/><text x="370.219" y="757.471" fill="#000" font-size="14" textLength="46.676">System</text><rect x="10" y="116.785" width="660.986" height="3" fill="#EEE" style="stroke:#EEE;stroke-width:1;"/><line x1="10" y1="116.785" x2="670.986" y2="116.785" style="stroke:#000;stroke-width:1;"/><line x1="10" y1="119.785" x2="670.986" y2="119.785" style="stroke:#000;stroke-width:1;"/><rect x="259.438" y="105.609" width="162.11" height="24.352" fill="#EEE" style="stroke:#000;stroke-width:2;"/><text x="265.438" y="123.104" fill="#000" font-size="13" textLength="144.498" font-weight="700">1. Recherche &amp; Filtrage</text><polygon points="381.557,158.313,391.557,162.313,381.557,166.313,385.557,162.313" fill="#181818" style="stroke:#181818;stroke-width:1;stroke-linejoin:miter;stroke-miterlimit:10;"/><line x1="53.062" y1="162.313" x2="387.557" y2="162.313" style="stroke:#181818;stroke-width:1;"/><text x="60.062" y="157.456" fill="#000" font-size="13" font-weight="700">1</text><text x="71.292" y="157.456" fill="#000" font-size="13" textLength="215.332">Parcourir le catalogue des formations</text><polygon points="64.062,188.664,54.062,192.664,64.062,196.664,60.062,192.664" fill="#181818" style="stroke:#181818;stroke-width:1;stroke-linejoin:miter;stroke-miterlimit:10;"/><line x1="58.062" y1="192.664" x2="392.557" y2="192.664" style="stroke:#181818;stroke-width:1;stroke-dasharray:2,2;"/><text x="70.062" y="187.808" fill="#000" font-size="13" font-weight="700">2</text><text x="81.292" y="187.808" fill="#000" font-size="13" textLength="116.333">Liste des formations</text><polygon points="381.557,219.016,391.557,223.016,381.557,227.016,385.557,223.016" fill="#181818" style="stroke:#181818;stroke-width:1;stroke-linejoin:miter;stroke-miterlimit:10;"/><line x1="53.062" y1="223.016" x2="387.557" y2="223.016" style="stroke:#181818;stroke-width:1;"/><text x="60.062" y="218.159" fill="#000" font-size="13" font-weight="700">3</text><text x="71.292" y="218.159" fill="#000" font-size="13" textLength="184.793">Rechercher par mot (ex: "Java")</text><polygon points="64.062,249.367,54.062,253.367,64.062,257.367,60.062,253.367" fill="#181818" style="stroke:#181818;stroke-width:1;stroke-linejoin:miter;stroke-miterlimit:10;"/><line x1="58.062" y1="253.367" x2="392.557" y2="253.367" style="stroke:#181818;stroke-width:1;stroke-dasharray:2,2;"/><text x="70.062" y="248.511" fill="#000" font-size="13" font-weight="700">4</text><text x="81.292" y="248.511" fill="#000" font-size="13" textLength="133.682">Résultats de recherche</text><polygon points="381.557,279.719,391.557,283.719,381.557,287.719,385.557,283.719" fill="#181818" style="stroke:#181818;stroke-width:1;stroke-linejoin:miter;stroke-miterlimit:10;"/><line x1="53.062" y1="283.719" x2="387.557" y2="283.719" style="stroke:#181818;stroke-width:1;"/><text x="60.062" y="278.862" fill="#000" font-size="13" font-weight="700">5</text><text x="71.292" y="278.862" fill="#000" font-size="13" textLength="201.417">Filtrer par "Distantiel ou Présentiel"</text><polygon points="64.062,310.07,54.062,314.07,64.062,318.07,60.062,314.07" fill="#181818" style="stroke:#181818;stroke-width:1;stroke-linejoin:miter;stroke-miterlimit:10;"/><line x1="58.062" y1="314.07" x2="392.557" y2="314.07" style="stroke:#181818;stroke-width:1;stroke-dasharray:2,2;"/><text x="70.062" y="309.214" fill="#000" font-size="13" font-weight="700">6</text><text x="81.292" y="309.214" fill="#000" font-size="13" textLength="210.126">Formation "Java en ligne" disponible</text><rect x="10" y="343.246" width="660.986" height="3" fill="#EEE" style="stroke:#EEE;stroke-width:1;"/><line x1="10" y1="343.246" x2="670.986" y2="343.246" style="stroke:#000;stroke-width:1;"/><line x1="10" y1="346.246" x2="670.986" y2="346.246" style="stroke:#000;stroke-width:1;"/><rect x="259.073" y="332.07" width="162.84" height="24.352" fill="#EEE" style="stroke:#000;stroke-width:2;"/><text x="265.073" y="349.565" fill="#000" font-size="13" textLength="145.228" font-weight="700">2. Réservation &amp; Panier</text><polygon points="381.557,384.773,391.557,388.773,381.557,392.773,385.557,388.773" fill="#181818" style="stroke:#181818;stroke-width:1;stroke-linejoin:miter;stroke-miterlimit:10;"/><line x1="53.062" y1="388.773" x2="387.557" y2="388.773" style="stroke:#181818;stroke-width:1;"/><text x="60.062" y="383.917" fill="#000" font-size="13" font-weight="700">7</text><text x="71.292" y="383.917" fill="#000" font-size="13" textLength="170.542">Ajouter la formation au panier</text><line x1="393.557" y1="419.125" x2="435.557" y2="419.125" style="stroke:#181818;stroke-width:1;"/><line x1="435.557" y1="419.125" x2="435.557" y2="432.125" style="stroke:#181818;stroke-width:1;"/><line x1="394.557" y1="432.125" x2="435.557" y2="432.125" style="stroke:#181818;stroke-width:1;"/><polygon points="404.557,428.125,394.557,432.125,404.557,436.125,400.557,432.125" fill="#181818" style="stroke:#181818;stroke-width:1;stroke-linejoin:miter;stroke-miterlimit:10;"/><text x="400.557" y="414.269" fill="#000" font-size="13" font-weight="700">8</text><text x="411.787" y="414.269" fill="#000" font-size="13" textLength="252.199">Créer un nouveau panier (si aucun n’existe)</text><polygon points="64.062,458.477,54.062,462.477,64.062,466.477,60.062,462.477" fill="#181818" style="stroke:#181818;stroke-width:1;stroke-linejoin:miter;stroke-miterlimit:10;"/><line x1="58.062" y1="462.477" x2="392.557" y2="462.477" style="stroke:#181818;stroke-width:1;stroke-dasharray:2,2;"/><text x="70.062" y="457.62" fill="#000" font-size="13" font-weight="700">9</text><text x="81.292" y="457.62" fill="#000" font-size="13" textLength="97.538">Panier mis à jour</text><rect x="10" y="491.652" width="660.986" height="3" fill="#EEE" style="stroke:#EEE;stroke-width:1;"/><line x1="10" y1="491.652" x2="670.986" y2="491.652" style="stroke:#000;stroke-width:1;"/><line x1="10" y1="494.652" x2="670.986" y2="494.652" style="stroke:#000;stroke-width:1;"/><rect x="216.833" y="480.477" width="247.321" height="24.352" fill="#EEE" style="stroke:#000;stroke-width:2;"/><text x="222.833" y="497.972" fill="#000" font-size="13" textLength="229.709" font-weight="700">3. Tentative de Commande &amp; Compte</text><polygon points="381.557,533.18,391.557,537.18,381.557,541.18,385.557,537.18" fill="#181818" style="stroke:#181818;stroke-width:1;stroke-linejoin:miter;stroke-miterlimit:10;"/><line x1="53.062" y1="537.18" x2="387.557" y2="537.18" style="stroke:#181818;stroke-width:1;"/><text x="60.062" y="532.323" fill="#000" font-size="13" textLength="14.46" font-weight="700">10</text><text x="78.522" y="532.323" fill="#000" font-size="13" textLength="226.891">Valider le panier / Passer la commande</text><polygon points="64.062,563.531,54.062,567.531,64.062,571.531,60.062,567.531" fill="#181818" style="stroke:#181818;stroke-width:1;stroke-linejoin:miter;stroke-miterlimit:10;"/><line x1="58.062" y1="567.531" x2="392.557" y2="567.531" style="stroke:#181818;stroke-width:1;stroke-dasharray:2,2;"/><text x="70.062" y="562.675" fill="#000" font-size="13" textLength="14.46" font-weight="700">11</text><text x="88.522" y="562.675" fill="#000" font-size="13" textLength="298.035">Demander la création d'un compte (Non authentifié)</text><path d="M37.062,579.531 L97.233,579.531 L97.233,587.883 L87.233,597.883 L37.062,597.883 L37.062,579.531" style="stroke:#000;stroke-width:1.5;" fill="#EEE"/><rect x="37.062" y="579.531" width="550.445" height="132.406" fill="none" style="stroke:#000;stroke-width:1.5;"/><text x="52.062" y="594.026" fill="#000" font-size="13" textLength="15.171" font-weight="700">alt</text><text x="112.233" y="592.95" fill="#000" font-size="11" textLength="327.003" font-weight="700">[Scénario Alternatif 1 : Abandon lors de la création de compte]</text><polygon points="381.557,626.234,391.557,630.234,381.557,634.234,385.557,630.234" fill="#181818" style="stroke:#181818;stroke-width:1;stroke-linejoin:miter;stroke-miterlimit:10;"/><line x1="53.062" y1="630.234" x2="387.557" y2="630.234" style="stroke:#181818;stroke-width:1;"/><text x="60.062" y="625.378" fill="#000" font-size="13" textLength="14.46" font-weight="700">12</text><text x="78.522" y="625.378" fill="#000" font-size="13" textLength="229.068">Annuler / Refuser la création de compte</text><line x1="393.557" y1="660.586" x2="435.557" y2="660.586" style="stroke:#181818;stroke-width:1;"/><line x1="435.557" y1="660.586" x2="435.557" y2="673.586" style="stroke:#181818;stroke-width:1;"/><line x1="394.557" y1="673.586" x2="435.557" y2="673.586" style="stroke:#181818;stroke-width:1;"/><polygon points="404.557,669.586,394.557,673.586,404.557,677.586,400.557,673.586" fill="#181818" style="stroke:#181818;stroke-width:1;stroke-linejoin:miter;stroke-miterlimit:10;"/><text x="400.557" y="655.729" fill="#000" font-size="13" textLength="14.46" font-weight="700">13</text><text x="419.017" y="655.729" fill="#000" font-size="13" textLength="152.49">Abandonner la commande</text><polygon points="64.062,699.938,54.062,703.938,64.062,707.938,60.062,703.938" fill="#181818" style="stroke:#181818;stroke-width:1;stroke-linejoin:miter;stroke-miterlimit:10;"/><line x1="58.062" y1="703.938" x2="392.557" y2="703.938" style="stroke:#181818;stroke-width:1;stroke-dasharray:2,2;"/><text x="70.062" y="699.081" fill="#000" font-size="13" textLength="14.46" font-weight="700">14</text><text x="88.522" y="699.081" fill="#000" font-size="13" textLength="275.311">Commande annulée (Pas de compte utilisateur)</text><?plantuml-src PL4xRjj04ErvYWSMZbHOXfDEW0mODbm4GM18YVeHEP8dMEuA-n6SBjT8brRdq4roaWoN56av10YGks_URoX5PrEpOLzG5Pr7kPOWxSSDlWVs9IXWNUp9HwbaJpQYNFqCaPjyiogAnGAtCoovUc6lBwxm92PwsZ4MYsADwpkivdWcNxdanSCmAefat2unQWxOEjzG56T3iSArmjTpV16LU7yxa0rY7ceCZOkOyEiSvMSwK3aTQPQdOqWcKWpA1NyU6vcorPwcV5HH3IXiu1AUlGvp_Yr7ngUpdKuCR65aPxb4BM7lh6mCvqu-ph8w-qC7lz8AhAZKcrBkVxWKzSZG61EKr4sBR4Kpx46TA2fPM9SEF00m2QBmghtu--itlxQblKdV2pOISFe3rVBPsQSPlcakLJkq5UF1DGtPkjsSVkxZnTxMPAJclBLUz4PvG-XSL_tegFd8-Q2xLTzTflg3UgmwyidN73A-jDrkvNIS5WMPY5LrEbhoud1lj1IharlSGblQAAFE6EVp6Y-PkUSjeCzGhBN9PAzBtgRmdvsBeNFDlOvz5ws7TF66hgXLqBLWecsCX4XHZ0IAdFmqZ_u3?></g></svg>